<?xml version="1.0" standalone="no"?>
<!DOCTYPE svg PUBLIC "-//W3C//DTD SVG 20010904//EN"
 "http://www.w3.org/TR/2001/REC-SVG-20010904/DTD/svg10.dtd">
<svg version="1.0" xmlns="http://www.w3.org/2000/svg"
 width="300.000000pt" height="300.000000pt" viewBox="0 0 300.000000 300.000000"
 preserveAspectRatio="xMidYMid meet">
<metadata>
Created by potrace 1.11, written by Peter Selinger 2001-2013
</metadata>
<g transform="translate(0.000000,300.000000) scale(0.100000,-0.100000)"
fill="#000000" stroke="none">
<path d="M2770 2658 c-37 -18 -150 -31 -150 -16 0 4 5 8 11 8 5 0 7 4 4 10 -4
6 -16 3 -31 -7 -30 -19 -40 -21 -209 -27 -380 -16 -406 -19 -430 -67 -29 -56
8 -120 77 -133 68 -13 130 -103 123 -182 -8 -96 -79 -165 -175 -169 l-45 -3 3
-35 c4 -44 -11 -73 -46 -90 -31 -14 -47 -14 -83 1 -46 19 -62 101 -26 136 21
21 71 34 96 24 13 -4 26 -6 29 -3 3 3 0 5 -6 5 -7 0 -12 7 -12 16 0 8 4 13 9
10 14 -9 35 24 36 55 0 16 -5 31 -12 33 -10 4 -12 -1 -7 -18 9 -37 -38 -59
-56 -26 -8 14 -6 21 7 28 9 6 18 17 19 27 2 15 1 15 -14 1 -21 -18 -48 -6 -39
18 7 18 39 21 66 7 25 -14 45 40 24 66 -12 14 -14 15 -10 2 7 -23 -8 -43 -27
-36 -12 5 -14 12 -6 32 11 28 8 30 -20 13 -17 -11 -22 -10 -30 2 -12 19 13 40
40 33 11 -3 20 0 20 6 0 6 -3 10 -7 10 -25 -4 -32 3 -28 30 2 19 -2 31 -10 35
-9 3 -12 0 -9 -8 3 -8 1 -17 -5 -21 -7 -4 -11 3 -11 17 -1 21 -2 22 -14 6 -14
-18 -36 -24 -36 -10 0 4 5 13 11 19 8 8 2 11 -22 10 -21 -1 -42 5 -54 16 -66
61 -211 91 -275 57 -21 -11 -25 -42 -11 -90 7 -25 7 -25 13 -2 8 30 18 28 58
-13 l34 -35 -32 -1 c-18 -1 -35 -2 -39 -3 -24 -5 -85 -29 -117 -46 -30 -15
-54 -18 -110 -16 -39 2 -80 7 -91 12 -18 7 -18 6 -6 -9 23 -29 89 -41 146 -27
36 8 58 9 77 1 24 -9 28 -7 34 11 8 27 45 59 61 53 7 -2 15 0 17 4 3 5 17 6
31 3 21 -4 23 -7 13 -19 -8 -10 -22 -13 -42 -9 l-30 6 24 -25 c18 -19 26 -22
37 -13 18 15 49 -13 40 -36 -7 -18 -47 -22 -47 -5 0 5 -4 8 -10 4 -5 -3 -6
-13 -3 -23 6 -15 5 -15 -10 -3 -15 12 -17 11 -17 -2 0 -10 -6 -14 -15 -11 -8
4 -15 2 -15 -4 0 -6 5 -12 12 -14 7 -3 8 -9 3 -18 -6 -10 -11 -9 -22 5 -12 17
-13 17 -13 2 0 -9 -5 -17 -11 -17 -5 0 -8 4 -4 9 3 5 1 12 -4 15 -5 4 -12 -3
-16 -14 -3 -11 -15 -20 -26 -20 -29 0 -23 -18 9 -22 32 -4 44 -41 16 -52 -20
-8 -47 12 -40 31 3 7 1 13 -4 13 -6 0 -10 -13 -10 -30 0 -22 -4 -28 -15 -24
-18 7 -20 35 -3 52 7 7 8 12 3 12 -21 0 -37 -19 -38 -44 -1 -14 -2 -26 -2 -26
0 0 -15 4 -33 9 -36 11 -43 1 -9 -14 12 -6 30 -25 39 -44 15 -30 15 -37 2 -62
-31 -60 -111 -72 -151 -22 -24 29 -29 63 -14 91 8 15 2 17 -49 17 -65 1 -111
25 -149 80 -67 98 -24 211 102 270 66 32 77 47 72 98 -6 67 -31 78 -189 83
-415 13 -458 16 -464 35 -2 5 -10 9 -18 9 -7 0 -11 -6 -8 -14 8 -20 -106 -13
-140 9 -28 19 -34 9 -15 -27 22 -41 65 -81 114 -105 44 -22 65 -26 180 -28
164 -5 181 -7 125 -14 -57 -8 -355 -5 -395 4 -16 3 -44 15 -62 26 -24 15 -33
17 -33 7 0 -26 18 -40 71 -58 57 -20 205 -21 369 -5 85 9 94 0 10 -10 -30 -4
-92 -13 -138 -20 -46 -8 -91 -12 -100 -10 -9 2 -24 5 -32 7 -8 1 -14 -3 -12
-9 2 -14 1 -15 -45 -17 -18 -1 -35 -5 -38 -8 -3 -3 -25 -2 -48 2 -23 5 -45 6
-49 4 -18 -11 107 -100 155 -110 27 -6 126 -6 136 1 13 7 76 17 69 10 -7 -7
-12 -8 -75 -20 -24 -4 -41 -10 -39 -14 2 -3 -10 -5 -27 -5 -18 1 -42 -3 -55
-7 -12 -5 -22 -5 -22 1 0 5 -12 5 -27 1 -37 -11 -69 -5 -108 19 -41 25 -48 25
-33 0 32 -51 160 -57 318 -13 155 42 173 39 38 -7 -51 -18 -114 -33 -141 -34
-30 -1 -46 -5 -43 -12 7 -18 -64 -41 -127 -40 l-57 1 32 -31 c18 -18 35 -31
38 -31 3 1 26 -7 52 -17 26 -10 54 -16 62 -13 9 4 18 2 21 -4 4 -5 12 -6 18
-2 7 4 21 9 32 10 17 2 16 0 -5 -12 -14 -8 -34 -14 -46 -15 -11 0 -24 -3 -28
-7 -4 -4 -17 -8 -29 -10 -82 -9 -99 -9 -115 3 -30 23 -49 17 -24 -8 19 -19 33
-23 97 -23 53 0 75 4 75 13 0 6 3 11 8 10 10 -4 128 39 192 70 72 35 79 37 54
19 -33 -25 -134 -79 -134 -72 0 4 -7 0 -15 -8 -7 -8 -31 -18 -52 -22 -21 -4
-46 -15 -56 -26 -27 -29 -77 -52 -121 -54 -22 -1 -42 -8 -44 -14 -2 -6 0 -11
5 -10 4 1 29 -8 55 -20 59 -27 117 -32 180 -15 26 6 46 9 43 4 -3 -4 -17 -11
-32 -15 -16 -3 -35 -13 -45 -22 -9 -8 -22 -16 -30 -17 -7 -2 -20 -6 -28 -9
-66 -25 -94 -27 -135 -12 -18 6 -18 5 2 -13 22 -19 59 -22 123 -8 14 3 33 3
43 0 15 -5 16 -8 6 -20 -26 -32 -103 -69 -152 -73 -41 -4 83 -46 128 -44 58 3
85 8 85 15 0 4 3 7 8 6 10 -3 70 29 110 59 18 14 35 23 38 20 10 -10 -177
-140 -243 -169 -31 -14 -57 -18 -80 -15 -29 5 -33 4 -23 -8 24 -29 91 -18 166
27 38 23 74 46 80 52 6 6 23 20 39 31 15 11 42 32 59 46 17 14 42 34 55 45 43
35 50 44 45 59 -4 8 -1 15 6 15 6 0 8 -4 5 -10 -7 -12 7 -13 21 -2 23 17 -79
-79 -166 -155 -60 -54 -101 -83 -116 -83 -25 0 -32 -15 -11 -24 9 -4 8 -7 -3
-15 -8 -5 -30 -23 -49 -40 -18 -16 -46 -33 -62 -36 -41 -9 -36 -22 14 -33 99
-21 182 5 265 82 25 22 68 62 96 88 28 26 52 45 55 43 4 -4 -15 -23 -161 -162
-90 -85 -182 -150 -223 -157 -17 -2 -32 -5 -35 -5 -3 -1 2 -6 10 -11 20 -12
65 -4 115 21 57 29 317 296 310 318 -3 11 5 27 20 41 23 22 25 22 19 5 -7 -18
-6 -18 9 -6 9 7 14 18 10 24 -3 6 -1 7 6 3 13 -8 0 -25 -143 -196 -89 -106
-154 -170 -173 -170 -18 0 -16 -18 2 -22 12 -2 6 -14 -23 -45 -21 -24 -42 -43
-48 -43 -5 0 -20 -9 -34 -20 l-25 -20 28 -1 c15 -1 33 -2 40 -3 23 -3 102 14
135 30 51 24 131 108 254 265 88 113 116 144 72 79 -40 -59 -134 -179 -162
-208 -10 -9 -31 -35 -47 -56 -27 -37 -146 -160 -176 -182 -13 -9 -45 -25 -61
-29 -5 -2 -11 -4 -15 -5 -5 -1 3 -5 17 -9 60 -18 166 74 314 272 64 84 90 100
32 19 -20 -27 -36 -52 -36 -56 0 -3 -21 -38 -46 -78 -45 -71 -87 -118 -106
-118 -5 0 -6 -5 -3 -10 4 -6 11 -8 16 -5 5 4 9 3 9 -2 0 -11 -71 -113 -79
-113 -4 0 -16 -7 -27 -15 -18 -15 -15 -16 36 -11 61 5 130 25 130 38 0 4 4 8
10 8 20 0 54 38 124 140 39 58 73 110 76 115 3 6 26 42 52 80 26 39 52 81 58
95 27 63 93 166 74 116 -5 -13 -4 -17 4 -12 8 5 10 2 5 -9 -4 -11 -8 -13 -13
-5 -4 6 -20 -16 -38 -54 -18 -37 -31 -67 -29 -69 1 -1 -4 -9 -11 -17 -14 -16
-76 -117 -99 -161 -7 -15 -20 -32 -28 -39 -8 -7 -15 -18 -15 -25 0 -7 -7 -15
-15 -19 -8 -3 -15 -12 -15 -21 0 -8 -4 -15 -10 -15 -5 0 -10 -4 -10 -10 0 -10
-21 -39 -57 -77 -12 -13 -20 -23 -18 -23 5 0 -15 -25 -52 -66 -13 -14 -42 -34
-65 -45 l-43 -20 45 5 c46 5 48 6 120 95 19 23 45 55 58 69 26 31 132 188 132
197 0 3 11 22 24 43 28 44 112 203 113 215 1 5 4 11 6 14 3 3 4 -1 3 -9 -2
-13 -7 -24 -61 -143 -37 -81 -48 -107 -51 -123 -4 -22 -53 -92 -64 -92 -6 0
-10 -4 -10 -10 0 -5 7 -7 15 -4 22 9 0 -50 -41 -109 -19 -26 -34 -49 -34 -51
0 -7 91 14 119 28 16 9 44 31 62 51 35 37 118 188 119 215 0 9 4 20 8 25 5 6
19 38 32 73 12 34 26 62 31 62 5 0 2 -17 -7 -37 -9 -21 -21 -54 -26 -73 -16
-57 -71 -184 -82 -192 -6 -4 -7 -8 -3 -8 20 0 -63 -100 -83 -100 -6 0 -9 -4
-5 -9 11 -18 50 -1 82 35 34 38 78 142 112 261 11 37 20 61 21 53 0 -10 8 -6
25 13 24 27 42 37 29 15 -4 -7 -3 -8 5 -4 6 4 9 11 6 16 -3 5 -1 11 5 15 5 3
10 0 10 -8 0 -9 8 -13 23 -10 15 2 34 -8 61 -32 44 -40 41 -43 -14 -15 -69 35
-138 9 -164 -63 -20 -56 -36 -109 -41 -138 -3 -13 -11 -46 -20 -74 -47 -160
-59 -202 -62 -222 -10 -63 -71 -158 -90 -139 -9 9 25 147 41 166 7 8 16 27 20
42 8 34 -25 68 -64 68 -29 0 -70 -30 -70 -51 0 -8 8 -4 20 9 24 26 39 27 65 8
17 -12 18 -18 7 -40 -7 -16 -20 -26 -32 -26 -31 0 -46 -41 -30 -80 16 -39 21
-80 9 -80 -5 0 -9 -7 -9 -16 0 -29 -25 -8 -44 38 -19 45 -19 45 3 67 62 62
-22 149 -89 91 -24 -21 -19 -24 15 -11 11 5 28 4 37 -1 23 -11 23 -57 1 -65
-38 -14 -57 -50 -39 -74 6 -9 23 -24 38 -33 16 -10 28 -25 28 -32 0 -22 -8
-17 -56 28 -37 35 -44 47 -40 71 6 40 -32 79 -71 73 -28 -5 -63 -39 -63 -60 0
-6 10 1 21 17 24 31 40 34 61 9 18 -20 16 -47 -7 -72 -33 -37 1 -79 63 -75 32
1 71 -24 73 -48 3 -47 9 -62 30 -78 13 -10 38 -18 54 -17 53 2 75 -10 75 -42
0 -35 34 -70 60 -63 10 3 28 16 41 29 26 27 51 31 69 9 16 -19 5 -65 -16 -65
-8 0 -12 -4 -9 -10 16 -26 64 39 57 76 -1 6 5 17 13 24 15 12 20 4 16 -22 0
-5 3 -8 9 -8 5 0 18 19 29 43 40 86 16 192 -56 250 -13 10 -23 26 -23 34 0 18
58 -36 78 -72 6 -11 12 -14 12 -7 0 6 5 12 11 12 7 0 9 -10 5 -26 -10 -39 9
-21 33 32 39 83 25 159 -45 236 -19 22 -33 42 -31 44 7 7 77 -62 77 -76 0 -10
3 -10 16 1 13 11 14 9 9 -17 l-6 -29 25 30 c31 36 45 97 34 145 -5 19 -10 40
-11 46 -2 6 -10 23 -20 37 -24 37 -21 44 7 18 23 -21 25 -22 29 -4 3 10 5 1 6
-19 0 -21 5 -38 11 -38 6 0 6 -10 -1 -27 -5 -14 -7 -34 -3 -42 5 -13 8 -11 16
9 6 14 13 33 15 43 1 10 10 30 19 45 l15 27 -5 -31 c-3 -18 -24 -70 -46 -117
-23 -47 -43 -92 -44 -99 -1 -7 -5 -22 -9 -33 -13 -40 -24 -115 -17 -115 5 0
16 21 26 47 9 27 28 62 41 80 12 17 23 36 23 41 0 5 6 22 13 38 33 71 47 97
41 77 -3 -13 -7 -35 -10 -49 -3 -14 -28 -72 -56 -127 -29 -56 -53 -104 -53
-107 -1 -3 -5 -13 -9 -22 -10 -23 -27 -23 -20 0 5 13 4 14 -4 3 -5 -7 -8 -21
-5 -30 2 -9 -4 -34 -13 -56 -10 -22 -17 -43 -16 -47 1 -5 -2 -8 -7 -8 -8 0
-25 -53 -37 -115 -2 -11 -6 -31 -9 -45 -3 -14 -7 -52 -9 -85 l-5 -60 14 50
c11 40 22 56 16 22 -1 -5 3 -6 8 -3 5 3 8 14 6 24 -1 9 1 22 5 27 4 6 10 23
14 38 10 40 114 255 126 259 6 2 13 15 15 29 8 46 32 93 39 80 4 -7 2 -18 -4
-26 -7 -8 -10 -15 -6 -15 3 0 -27 -66 -68 -147 -62 -124 -105 -244 -98 -274 1
-4 -3 -20 -7 -37 -5 -16 -5 -35 0 -43 6 -10 9 -7 10 11 3 45 4 48 12 56 4 4 7
1 7 -6 0 -19 13 -3 16 18 5 47 16 78 53 150 42 79 73 149 86 190 4 13 8 22 11
20 6 -6 -22 -101 -40 -135 -9 -18 -16 -35 -15 -38 0 -4 -6 -16 -14 -28 -20
-31 -44 -102 -52 -157 -12 -75 -13 -100 -4 -105 5 -4 9 11 10 32 0 21 3 32 6
26 7 -19 19 -16 19 5 2 35 13 70 42 133 16 35 33 74 37 87 4 13 8 22 10 20 7
-7 -14 -84 -36 -133 -28 -62 -29 -66 -36 -140 -3 -33 -2 -57 2 -53 8 7 11 29
14 81 0 16 5 26 10 22 5 -3 9 -19 9 -35 -1 -17 2 -33 5 -37 6 -5 12 56 8 80 0
4 4 7 9 7 6 0 10 -6 9 -13 -5 -22 13 -102 27 -121 13 -18 14 -18 25 10 6 16
13 55 14 87 2 32 6 62 10 65 4 4 6 2 5 -3 -1 -6 -1 -14 0 -20 1 -5 3 -14 5
-20 1 -5 3 -23 3 -38 1 -16 6 -26 11 -23 4 3 6 18 3 33 -3 20 -1 25 7 18 9 -9
16 -41 20 -88 1 -5 5 -6 10 -2 6 3 8 15 6 27 -3 12 -7 40 -11 62 -3 22 -15 60
-26 85 -25 57 -34 81 -42 105 -6 16 -4 17 9 6 8 -7 15 -16 15 -21 0 -5 14 -37
30 -71 17 -34 30 -78 30 -97 0 -24 3 -31 9 -23 7 11 10 10 15 -3 3 -9 6 -26 6
-36 0 -11 3 -18 8 -15 8 5 7 53 -1 96 -9 45 -20 85 -26 95 -3 6 -6 15 -7 20
-1 6 -11 28 -22 50 -59 117 -94 214 -71 199 5 -3 9 -11 9 -19 0 -8 9 -29 19
-47 10 -18 22 -48 26 -66 4 -18 9 -31 12 -28 11 11 83 -144 83 -179 0 -19 5
-35 11 -35 6 0 8 7 5 17 -4 10 -3 14 1 9 4 -4 13 -26 20 -49 l12 -42 -5 50
c-10 93 -11 101 -22 121 -5 10 -10 21 -10 24 -1 14 -20 55 -71 160 -88 179
-108 234 -89 246 6 4 8 3 5 -2 -6 -11 0 -25 77 -184 28 -58 54 -106 58 -108 4
-2 8 -11 8 -21 0 -9 4 -21 9 -27 14 -15 51 -123 51 -150 0 -14 4 -23 10 -19 5
3 7 12 4 19 -3 7 2 19 10 26 9 7 14 16 11 19 -2 4 -6 21 -9 37 -8 44 -46 154
-68 197 -10 21 -16 47 -13 57 3 10 -1 45 -10 77 -9 32 -17 63 -19 70 -1 7 -5
16 -9 19 -4 4 -7 14 -7 22 0 8 -21 57 -47 110 -46 96 -57 129 -42 137 6 4 21
-35 21 -55 0 -3 4 -11 10 -17 6 -7 7 -13 3 -13 -4 0 -2 -7 5 -15 14 -17 34
-10 23 8 -12 19 -14 49 -4 42 6 -3 9 9 7 30 -2 19 0 35 5 35 5 0 9 -8 9 -17 0
-14 6 -11 25 12 32 39 32 22 -1 -35 -14 -24 -26 -60 -26 -80 -1 -47 18 -113
42 -142 l19 -23 -5 28 c-2 15 0 27 6 27 5 0 10 -6 10 -12 0 -7 6 -4 12 7 17
29 71 86 76 80 3 -2 -11 -24 -30 -47 -55 -67 -67 -97 -63 -159 3 -53 24 -111
45 -124 6 -4 10 -3 9 2 -1 4 -1 17 1 28 l1 20 9 -20 c5 -11 9 -14 9 -7 1 14
72 92 84 92 12 0 -8 -30 -53 -80 -32 -35 -40 -53 -42 -85 -2 -65 2 -87 23
-133 22 -44 41 -57 34 -22 -2 11 0 19 4 17 4 -1 29 21 56 48 43 45 47 47 41
23 -7 -32 -2 -34 36 -14 19 10 29 11 37 3 8 -8 11 -5 11 10 0 24 23 36 39 20
16 -16 14 -22 -20 -56 -31 -31 -62 -40 -74 -21 -11 18 -64 11 -85 -13 -16 -16
-20 -30 -15 -52 6 -35 12 -41 45 -49 l25 -7 -27 21 c-33 26 -35 44 -7 64 25
17 42 12 75 -21 18 -18 30 -22 47 -17 28 9 45 33 40 54 -7 27 26 52 61 47 58
-8 91 18 102 81 7 42 15 62 22 61 4 -1 26 -1 49 0 68 2 93 45 53 91 -24 28
-24 30 -5 57 18 25 51 21 60 -8 4 -10 11 -19 16 -19 11 0 3 38 -10 53 -4 4
-22 9 -40 12 -46 5 -83 -31 -75 -73 5 -25 0 -35 -37 -71 -41 -39 -59 -50 -59
-33 0 12 14 26 35 38 11 6 26 22 33 35 11 22 9 27 -24 55 -30 26 -36 36 -31
57 10 39 38 43 64 10 13 -15 23 -25 23 -21 0 12 -23 58 -29 59 -47 9 -73 5
-86 -14 -21 -30 -19 -60 6 -91 21 -26 21 -27 2 -71 -10 -25 -21 -45 -25 -45
-4 0 -14 10 -22 22 -16 22 -13 61 6 85 17 21 0 62 -31 78 -16 8 -31 20 -33 27
-7 20 2 46 19 52 17 7 53 -10 53 -24 0 -6 5 -10 10 -10 18 0 -8 39 -37 53 -60
32 -115 -50 -68 -103 11 -12 27 -67 26 -85 0 -2 6 -23 14 -45 13 -36 12 -40
-1 -40 -27 0 -53 42 -80 130 -14 47 -27 90 -28 95 -1 6 -15 51 -30 100 -15 50
-39 126 -52 169 -14 43 -32 91 -41 107 -31 52 -101 64 -159 28 -19 -11 -34
-18 -34 -15 0 10 34 46 43 46 5 0 15 7 24 15 11 12 19 13 28 5 9 -8 15 -8 20
0 3 5 1 10 -6 10 -7 0 -9 3 -5 7 4 5 14 0 21 -10 7 -10 17 -19 22 -19 15 -2
63 -42 63 -53 0 -7 21 -65 47 -131 34 -89 55 -128 84 -156 36 -37 59 -48 59
-29 0 5 -4 11 -8 13 -18 7 -74 99 -106 176 -19 45 -33 82 -29 82 3 0 1 6 -4
13 -5 6 -20 39 -32 72 -13 33 -27 68 -32 77 -5 11 -5 19 1 23 6 4 10 3 9 -2
-3 -10 6 -34 37 -100 13 -28 24 -54 24 -56 0 -3 8 -22 17 -43 9 -22 17 -41 18
-44 1 -3 13 -30 27 -60 53 -118 168 -196 264 -181 4 1 -5 10 -18 21 -21 16
-78 113 -78 133 0 4 7 4 15 1 8 -4 15 -1 15 5 0 6 -5 11 -11 11 -7 0 -18 8
-26 18 -17 22 -119 233 -127 264 -4 13 2 7 11 -12 10 -19 20 -37 23 -40 3 -3
16 -29 30 -57 14 -29 28 -53 33 -53 4 0 7 -5 7 -10 0 -6 5 -16 10 -23 6 -7 25
-34 42 -62 18 -27 35 -52 38 -55 3 -3 23 -32 45 -65 22 -33 46 -66 52 -73 7
-7 18 -21 25 -31 39 -54 158 -106 158 -69 0 6 -3 9 -6 5 -15 -14 -112 62 -159
124 -93 122 -138 186 -177 249 -26 41 -60 96 -77 123 -16 26 -26 47 -23 47 8
0 66 -86 83 -124 7 -14 16 -26 21 -26 4 0 8 -6 8 -13 0 -8 9 -22 20 -32 11
-10 20 -24 20 -32 0 -7 5 -13 10 -13 6 0 10 -5 10 -11 0 -6 6 -16 13 -23 6 -7
21 -26 32 -41 42 -61 95 -107 142 -124 56 -21 138 -27 148 -12 3 6 -1 11 -10
11 -19 0 -81 63 -102 104 -8 15 -10 25 -5 22 6 -4 13 -2 17 4 3 5 0 10 -8 10
-7 0 -25 12 -39 27 -29 32 -148 219 -148 234 0 5 -4 9 -8 9 -8 0 -22 23 -41
65 -2 5 3 2 12 -7 10 -9 17 -19 17 -22 0 -3 7 -14 14 -23 8 -10 46 -58 85
-108 83 -107 132 -157 186 -193 46 -31 60 -35 87 -26 17 5 11 11 -35 38 -70
39 -217 179 -217 206 0 5 -6 13 -13 17 -7 4 -31 31 -52 58 -22 28 -42 52 -45
55 -3 3 -27 34 -53 70 -27 36 -55 73 -63 83 -9 11 -13 21 -11 24 3 2 18 -13
33 -34 16 -21 32 -39 37 -41 4 -2 7 -8 7 -14 0 -5 6 -15 13 -22 6 -7 26 -30
42 -51 28 -35 45 -54 134 -150 78 -84 138 -115 222 -115 53 0 79 7 79 22 0 5
-4 7 -8 4 -12 -7 -72 36 -105 75 -27 33 -27 34 -7 41 14 5 33 1 58 -15 20 -12
46 -21 57 -21 11 1 28 2 38 3 19 1 24 21 5 21 -44 0 -148 72 -253 174 l-50 49
52 -42 c92 -74 168 -96 271 -76 48 9 54 20 15 30 -42 10 -123 71 -123 91 0 15
56 10 76 -7 8 -6 14 -9 14 -6 0 3 12 2 28 -2 29 -9 72 2 72 18 0 5 -14 7 -30
5 -31 -5 -135 40 -167 71 -8 8 -21 15 -29 15 -8 0 -14 4 -14 8 0 5 -11 15 -25
22 -14 7 -25 17 -25 22 0 5 12 1 28 -9 65 -45 137 -54 225 -28 70 20 78 31 29
38 -36 6 -160 76 -134 77 6 0 12 4 12 10 0 5 -10 9 -23 8 -23 -2 -196 99 -197
115 0 8 86 -36 150 -78 8 -5 17 -10 20 -10 3 -1 21 -8 40 -17 81 -38 134 -44
176 -20 10 6 17 12 14 12 -3 0 -32 2 -65 4 -54 3 -214 60 -234 82 -3 4 3 4 14
-1 75 -29 155 -26 229 8 31 14 56 30 56 34 0 5 -19 9 -42 10 -46 1 -138 37
-138 54 0 6 5 7 10 4 6 -4 9 -1 8 7 -2 10 11 12 55 9 61 -3 112 11 121 35 7
18 -9 18 -37 0 -33 -21 -148 -12 -220 17 -26 11 -24 12 30 12 80 1 108 9 170
50 53 35 65 62 20 46 -46 -17 -176 11 -157 34 7 9 -3 12 -38 13 -26 1 -81 13
-122 27 -41 14 -63 23 -49 20 14 -2 44 -7 65 -11 21 -3 42 -8 45 -9 3 -2 36
-7 74 -10 38 -4 72 -7 75 -7 44 -4 83 6 107 26 28 24 27 50 -1 27 -19 -16 -59
-23 -126 -23 -120 0 -183 12 -93 17 56 3 135 41 178 85 41 42 42 56 4 42 -21
-8 -53 -8 -136 -3 -16 1 -21 5 -16 17 5 13 2 15 -15 10 -28 -9 -90 -10 -128
-2 -16 3 -47 8 -69 11 -22 3 -49 7 -60 9 -11 3 -35 5 -53 5 -20 1 -31 5 -27
11 4 6 9 8 13 6 9 -5 87 -15 177 -22 39 -3 79 -6 90 -8 11 -1 30 1 42 6 13 4
25 3 28 -3 4 -5 12 -6 18 -2 7 4 23 8 37 9 14 1 26 3 28 4 1 1 5 3 10 4 25 7
62 31 67 44 8 22 1 24 -31 11 -62 -24 -97 -28 -252 -33 -67 -1 -122 0 -122 4
0 4 28 8 63 9 121 4 158 17 224 78 35 33 81 101 71 107 -2 1 -19 -6 -38 -16z
m-1233 -134 c9 -23 -13 -40 -32 -24 -12 10 -13 16 -4 26 15 18 28 18 36 -2z
m897 -46 c-3 -4 -9 -8 -15 -8 -5 0 -9 4 -9 8 0 5 7 9 15 9 8 0 12 -4 9 -9z
m-104 -12 c0 -2 -7 -7 -16 -10 -8 -3 -12 -2 -9 4 6 10 25 14 25 6z m250 -186
c0 -5 -7 -7 -15 -4 -8 4 -15 8 -15 10 0 2 7 4 15 4 8 0 15 -4 15 -10z m-95
-160 c-3 -5 9 -12 27 -15 18 -4 44 -13 58 -21 23 -12 116 -47 133 -50 4 -1 14
-2 22 -3 8 0 15 -5 15 -11 0 -21 -61 -8 -136 28 -44 21 -91 43 -105 49 -14 6
-26 18 -26 27 0 8 4 13 9 10 5 -3 6 -9 3 -14z m-903 -42 c0 -7 2 -22 3 -33 1
-11 3 -25 4 -31 0 -7 19 -12 44 -12 23 0 49 -1 57 -1 12 -1 15 -14 14 -63 l-2
-63 -43 -2 c-24 -1 -51 -2 -60 -2 -9 -1 -15 -9 -14 -22 2 -25 21 -38 45 -32 9
3 30 -6 45 -20 26 -21 29 -32 31 -92 2 -38 0 -73 -4 -79 -3 -6 -7 -18 -9 -26
-3 -25 -36 -90 -45 -90 -11 0 -10 11 6 42 8 15 17 42 19 60 3 18 8 44 11 57 3
14 0 31 -7 40 -9 12 -9 13 1 7 15 -9 16 6 0 22 -9 9 -9 12 0 12 8 0 6 7 -5 18
-24 25 -53 35 -54 19 0 -8 -2 -8 -5 -1 -3 6 -16 9 -29 6 -14 -2 -22 -9 -18
-15 3 -6 1 -7 -6 -3 -6 4 -8 12 -5 18 12 19 13 78 2 78 -7 0 -3 7 8 15 19 15
19 15 -1 9 -16 -5 -17 -4 -5 4 8 6 18 8 22 5 20 -11 89 -9 99 4 9 10 8 13 -1
13 -10 0 -10 3 0 15 8 10 9 15 2 15 -6 0 -9 7 -6 15 5 11 2 13 -10 9 -10 -4
-16 -1 -16 7 0 10 -3 10 -11 2 -7 -7 -20 -8 -33 -3 -11 4 -25 8 -31 9 -5 0
-10 18 -10 39 0 37 -1 37 -42 39 l-42 2 1 -39 c0 -21 -2 -42 -5 -47 -7 -11
-37 -11 -54 0 -6 4 -14 3 -18 -2 -3 -6 -12 -8 -20 -4 -14 5 -19 -6 -16 -34 1
-7 -3 -13 -8 -13 -6 0 -8 -7 -5 -15 3 -8 9 -14 12 -13 4 0 9 -1 12 -2 16 -7
80 -4 80 4 0 6 6 1 14 -10 9 -12 11 -21 4 -25 -6 -4 -6 -9 -1 -12 15 -10 8
-72 -8 -69 -39 10 -52 10 -72 2 -12 -5 -18 -9 -14 -9 5 -1 1 -8 -7 -17 -9 -8
-14 -20 -11 -25 4 -5 1 -9 -5 -9 -17 0 -5 -112 14 -122 12 -7 14 -14 6 -28
-13 -25 -13 -30 4 -24 8 3 17 0 22 -7 4 -8 3 -10 -4 -5 -7 4 -12 2 -12 -3 0
-6 5 -11 10 -11 6 0 10 -6 10 -13 0 -7 11 -21 25 -31 13 -10 22 -23 18 -29 -4
-6 2 -8 15 -5 12 3 21 3 20 -1 -4 -32 42 -46 59 -18 4 8 16 17 27 20 10 4 16
13 13 21 -4 10 0 12 14 9 11 -3 19 -2 18 3 -1 5 -1 18 0 29 2 19 3 19 13 -2
11 -23 8 -27 -65 -89 -37 -33 -49 -33 -87 -6 -95 69 -144 160 -145 269 0 65 3
75 26 99 18 17 39 27 64 28 25 2 39 8 41 18 4 29 -13 40 -62 40 -64 1 -73 9
-64 57 4 21 3 46 -1 54 -7 11 -2 16 16 20 14 2 28 0 31 -5 3 -4 10 -5 16 -2 6
4 23 7 37 8 24 1 25 4 23 44 l-4 42 61 0 c41 0 61 -4 63 -12z m907 -134 c4 3
8 -1 8 -9 0 -12 -5 -12 -29 1 -15 8 -28 17 -28 20 0 2 9 0 20 -6 11 -6 24 -9
29 -6z m-1999 -34 c-14 -11 -29 -20 -35 -20 -5 0 4 9 20 20 38 25 48 25 15 0z
m45 -5 c-39 -32 -57 -32 -19 0 16 14 34 25 39 25 6 0 -3 -11 -20 -25z m-70
-45 c-10 -11 -24 -20 -32 -20 -7 0 -13 -3 -13 -8 0 -9 -55 -38 -90 -47 -37
-10 -15 9 45 39 28 14 59 32 70 40 29 22 41 19 20 -4z m1925 -51 c0 -6 9 -8
23 -4 15 4 18 3 9 -3 -13 -8 14 -35 93 -95 5 -4 33 -25 61 -47 29 -22 56 -40
62 -40 5 0 12 -7 16 -15 3 -8 12 -15 21 -15 8 0 15 -4 15 -9 0 -6 -12 -6 -31
-1 -32 9 -83 48 -157 119 -24 22 -46 41 -50 41 -12 0 -86 80 -74 80 7 0 12 -5
12 -11z m-1770 -13 c0 -2 -16 -16 -35 -30 -19 -15 -35 -23 -35 -19 0 4 15 18
33 30 35 24 37 25 37 19z m1841 -13 c13 -16 12 -17 -3 -4 -10 7 -18 15 -18 17
0 8 8 3 21 -13z m64 -43 c3 -5 2 -10 -4 -10 -5 0 -13 5 -16 10 -3 6 -2 10 4
10 5 0 13 -4 16 -10z m-244 -47 c13 -16 12 -17 -3 -4 -10 7 -18 15 -18 17 0 8
8 3 21 -13z m60 -27 c80 -79 115 -122 49 -58 -36 34 -69 62 -74 62 -20 0 190
-225 264 -282 19 -15 32 -30 28 -33 -15 -16 -81 36 -153 122 -44 52 -89 105
-100 118 -55 61 -63 74 -52 78 9 3 8 8 -2 20 -26 32 -3 17 40 -27z m-1431 -70
c0 -2 -8 -10 -17 -17 -16 -13 -17 -12 -4 4 13 16 21 21 21 13z m1251 -13 c13
-16 12 -17 -3 -4 -10 7 -18 15 -18 17 0 8 8 3 21 -13z m-1290 -46 c-10 -9 -11
-8 -5 6 3 10 9 15 12 12 3 -3 0 -11 -7 -18z m1324 -3 c9 -15 12 -23 6 -20 -11
7 -35 46 -28 46 3 0 12 -12 22 -26z m-162 -64 c7 -29 1 -24 -17 11 -12 23 -12
28 -2 20 8 -7 16 -21 19 -31z m197 15 c7 -9 8 -15 2 -15 -5 0 -12 7 -16 15 -3
8 -4 15 -2 15 2 0 9 -7 16 -15z m-1022 -3 c15 11 15 11 5 -3 -7 -9 -9 -20 -5
-25 4 -4 -1 -2 -10 5 -16 12 -18 11 -18 -7 0 -12 -4 -24 -10 -27 -13 -8 -13 8
2 41 7 14 14 21 16 15 3 -9 8 -8 20 1z m657 -54 c4 -18 8 -36 9 -40 1 -3 4
-10 9 -14 4 -4 7 -12 7 -18 0 -31 -34 46 -46 102 -5 28 14 0 21 -30z m-1045
28 c0 -2 -8 -10 -17 -17 -16 -13 -17 -12 -4 4 13 16 21 21 21 13z m1250 -11
c7 -9 8 -15 2 -15 -5 0 -12 7 -16 15 -3 8 -4 15 -2 15 2 0 9 -7 16 -15z m-479
-470 c9 -22 20 -50 23 -62 4 -13 11 -23 15 -23 8 0 37 -62 46 -102 4 -16 11
-26 15 -23 9 6 24 -45 15 -53 -3 -3 -6 -3 -7 -1 -14 23 -78 156 -78 164 -1 6
-7 17 -14 25 -23 29 -57 124 -55 155 0 10 7 -3 40 -80z m-84 -130 c0 -8 -4
-15 -9 -15 -10 0 -11 14 -1 23 9 10 10 9 10 -8z m-475 -289 c-2 -10 1 -15 6
-12 6 3 29 -1 52 -9 l42 -15 -6 28 c-6 25 -4 24 35 -16 43 -45 47 -66 7 -38
-28 20 -57 20 -82 1 -16 -12 -22 -12 -47 0 -55 29 -74 90 -25 83 14 -2 20 -9
18 -22z m536 -21 c-3 -3 -9 2 -12 12 -6 14 -5 15 5 6 7 -7 10 -15 7 -18z"/>
<path d="M717 1663 c-12 -12 -7 -22 8 -17 8 4 15 10 15 15 0 11 -14 12 -23 2z"/>
<path d="M1796 392 c-3 -5 -1 -24 4 -42 5 -18 7 -37 4 -41 -3 -5 0 -9 6 -9 8
0 10 15 5 47 -7 52 -10 59 -19 45z"/>
</g>
</svg>
